<svg width="132" height="132" viewBox="0 0 132 132" fill="none" xmlns="http://www.w3.org/2000/svg">
<g filter="url(#filter0_d_101_96)">
<g clip-path="url(#clip0_101_96)">
<path d="M66 123C32.3128 123 5 95.6872 5 62C5 28.3128 32.3128 1 66 1C99.6872 1 127 28.3128 127 62C127 95.6872 99.6872 123 66 123Z" stroke="#DF9696" stroke-width="2"/>
<path d="M38.6859 62.0004L78.7572 21.9213L82.8226 25.9867L65.5258 43.2855L47.5219 61.2933L46.8148 62.0004L47.5219 62.7074L82.8295 98.0072L78.764 102.073L38.6859 62.0004Z" fill="#DF9696" stroke="#DF9696" stroke-width="2"/>
</g>
</g>
<defs>
<filter id="filter0_d_101_96" x="0" y="0" width="132" height="132" filterUnits="userSpaceOnUse" color-interpolation-filters="sRGB">
<feFlood flood-opacity="0" result="BackgroundImageFix"/>
<feColorMatrix in="SourceAlpha" type="matrix" values="0 0 0 0 0 0 0 0 0 0 0 0 0 0 0 0 0 0 127 0" result="hardAlpha"/>
<feOffset dy="4"/>
<feGaussianBlur stdDeviation="2"/>
<feComposite in2="hardAlpha" operator="out"/>
<feColorMatrix type="matrix" values="0 0 0 0 0 0 0 0 0 0 0 0 0 0 0 0 0 0 0.25 0"/>
<feBlend mode="normal" in2="BackgroundImageFix" result="effect1_dropShadow_101_96"/>
<feBlend mode="normal" in="SourceGraphic" in2="effect1_dropShadow_101_96" result="shape"/>
</filter>
<clipPath id="clip0_101_96">
<rect width="124" height="124" fill="white" transform="matrix(-1 0 0 -1 128 124)"/>
</clipPath>
</defs>
</svg>
