<svg width="56" height="56" viewBox="0 0 56 56" fill="none" xmlns="http://www.w3.org/2000/svg">
<ellipse cx="27.9529" cy="28" rx="27.9529" ry="28" fill="#4DCC84"/>
<path d="M22.0642 33.994C24.9048 36.42 26.8387 38.8234 33.5545 40.9028C38.152 41.6949 40.9231 37.427 40.644 36.0737C40.644 35.1991 35.0411 30.8121 34.1216 30.9607C31.7079 32.0499 31.7859 32.4905 30.7187 33.2331C28.4363 32.5235 24.7412 27.7655 23.3455 26.1317C24.1829 25.0755 26.4154 24.1581 26.0542 22.4088C25.1183 20.5935 24.2189 17.3282 22.4948 16.1895C19.5885 15.1828 16.2679 18.4465 15.9724 19.8822C15.9724 26.0214 17.6965 29.1091 22.0642 33.994Z" fill="#FAFCFA"/>
</svg>
