<svg width="56" height="56" viewBox="0 0 56 56" fill="none" xmlns="http://www.w3.org/2000/svg">
<ellipse cx="27.9529" cy="28" rx="27.9529" ry="28" fill="#F353B0"/>
<path d="M12.9807 27H27.9555V38.7642C16.4748 39 12.9807 33.4972 12.9807 27Z" fill="#FBFAFB"/>
<path d="M12.9807 27.7715H27.9555V16.0073C16.4748 15.7715 12.9807 21.2743 12.9807 27.7715Z" fill="#FBFAFB"/>
<path d="M42.9265 27H27.9518V38.7642C39.4324 39 42.9265 33.4972 42.9265 27Z" fill="#FBFAFB"/>
<path d="M42.9265 27.7715H27.9518V16.0073C39.4324 15.7715 42.9265 21.2743 42.9265 27.7715Z" fill="#FBFAFB"/>
<ellipse cx="4.72423" cy="2.0491" rx="4.72423" ry="2.0491" transform="matrix(0.694052 -0.719924 0.718755 0.695264 13.9761 39.8027)" fill="#FBFAFB"/>
<ellipse cx="21.4653" cy="27.5" rx="2.49579" ry="2.5" fill="#F24AAB"/>
<ellipse cx="27.4526" cy="27.5" rx="2.49579" ry="2.5" fill="#F24AAB"/>
<ellipse cx="34.4404" cy="27.5" rx="2.49579" ry="2.5" fill="#F24AAB"/>
</svg>
