<svg width="67" height="52" viewBox="0 0 67 52" fill="none" xmlns="http://www.w3.org/2000/svg">
<path d="M62.8125 2H4.1875C3.07691 2 2.0118 2.44118 1.22649 3.22649C0.441182 4.0118 0 5.07691 0 6.1875L0 45.2708C0 46.3814 0.441182 47.4465 1.22649 48.2318C2.0118 49.0172 3.07691 49.4583 4.1875 49.4583H62.8125C63.9231 49.4583 64.9882 49.0172 65.7735 48.2318C66.5588 47.4465 67 46.3814 67 45.2708V6.1875C67 5.07691 66.5588 4.0118 65.7735 3.22649C64.9882 2.44118 63.9231 2 62.8125 2ZM61.9192 4.79167L33.5 26.7621L5.08083 4.79167H61.9192ZM2.79167 44.6985V6.55042L24.3015 23.1748L2.79167 44.6985ZM4.75979 46.6667L26.5208 24.9056L32.6346 29.6375C32.8787 29.8254 33.178 29.9273 33.486 29.9273C33.7941 29.9273 34.0934 29.8254 34.3375 29.6375L40.4792 24.9056L62.2402 46.6667H4.75979ZM64.2083 44.6985L42.6985 23.1748L64.2083 6.55042V44.6985Z" fill="#312669" stroke="#312669" stroke-width="4"/>
</svg>
