<svg width="71" height="71" viewBox="0 0 71 71" fill="none" xmlns="http://www.w3.org/2000/svg">
<path fill-rule="evenodd" clip-rule="evenodd" d="M35.5 4.4375C18.3463 4.4375 4.4375 18.693 4.4375 36.2904C4.4375 50.3656 13.3402 62.2914 25.682 66.507C27.2352 66.7982 27.8037 65.8137 27.8037 64.9678C27.8037 64.2051 27.776 62.2082 27.7621 59.5457C19.1229 61.4732 17.2924 55.2746 17.2924 55.2746C15.8779 51.5998 13.8395 50.6152 13.8395 50.6152C11.0244 48.6322 14.0475 48.6738 14.0475 48.6738C17.1676 48.8957 18.8039 51.9604 18.8039 51.9604C21.5773 56.8277 26.0703 55.4271 27.8453 54.609C28.1227 52.5566 28.927 51.1422 29.8145 50.3518C22.9225 49.5475 15.6699 46.8156 15.6699 34.6125C15.6699 31.1318 16.8764 28.2891 18.8594 26.0703C18.5404 25.266 17.4727 22.0211 19.1645 17.6391C19.1645 17.6391 21.7715 16.7793 27.7066 20.8979C30.1889 20.1906 32.8375 19.8439 35.4861 19.8301C38.1209 19.8439 40.7834 20.1906 43.2656 20.8979C49.2008 16.7793 51.7939 17.6391 51.7939 17.6391C53.4857 22.0211 52.418 25.266 52.099 26.0703C54.082 28.3029 55.2885 31.1457 55.2885 34.6125C55.2885 46.8434 48.0221 49.5336 41.1023 50.324C42.2117 51.3086 43.2102 53.25 43.2102 56.2176C43.2102 60.4748 43.1686 63.9139 43.1686 64.9539C43.1686 65.7998 43.7232 66.7982 45.3041 66.4793C57.6736 62.2775 66.5625 50.3518 66.5625 36.2904C66.5625 18.693 52.6537 4.4375 35.5 4.4375Z" fill="#312769"/>
</svg>
