<svg width="68" height="68" viewBox="0 0 68 68" fill="none" xmlns="http://www.w3.org/2000/svg">
<path fill-rule="evenodd" clip-rule="evenodd" d="M33.6367 0C15.0614 0 0 15.4376 0 34.4944C0 49.7369 9.64051 62.6516 23.0051 67.2168C24.6869 67.5322 25.3026 66.466 25.3026 65.5499C25.3026 64.724 25.2726 62.5615 25.2575 59.6782C15.9023 61.7656 13.9202 55.0529 13.9202 55.0529C12.3885 51.0734 10.1811 50.0072 10.1811 50.0072C7.13278 47.8597 10.4063 47.9048 10.4063 47.9048C13.785 48.145 15.557 51.4638 15.557 51.4638C18.5602 56.7349 23.4255 55.2181 25.3476 54.3321C25.648 52.1096 26.5189 50.5778 27.48 49.7218C20.0168 48.8508 12.1633 45.8925 12.1633 32.6774C12.1633 28.908 13.4697 25.8295 15.617 23.4268C15.2717 22.5558 14.1154 19.0418 15.9474 14.2963C15.9474 14.2963 18.7705 13.3653 25.1975 17.8254C27.8854 17.0595 30.7535 16.6841 33.6217 16.6691C36.4748 16.6841 39.3579 17.0595 42.0458 17.8254C48.4729 13.3653 51.2809 14.2963 51.2809 14.2963C53.1129 19.0418 51.9567 22.5558 51.6113 23.4268C53.7586 25.8445 55.065 28.9231 55.065 32.6774C55.065 45.9225 47.1965 48.8358 39.7033 49.6918C40.9046 50.758 41.9858 52.8604 41.9858 56.0741C41.9858 60.6844 41.9407 64.4086 41.9407 65.5349C41.9407 66.451 42.5414 67.5322 44.2533 67.1868C57.6479 62.6366 67.2734 49.7218 67.2734 34.4944C67.2734 15.4376 52.2119 0 33.6367 0Z" fill="black"/>
</svg>
