<svg width="129" height="129" viewBox="0 0 129 129" fill="none" xmlns="http://www.w3.org/2000/svg">
<path d="M64.5 0C28.8776 0 0 28.8776 0 64.5C0 100.122 28.8776 129 64.5 129C100.122 129 129 100.122 129 64.5C129 28.8776 100.122 0 64.5 0ZM64.5 6C96.8087 6 123 32.1913 123 64.5C123 96.8087 96.8087 123 64.5 123C32.1913 123 6 96.8087 6 64.5C6 32.1913 32.1913 6 64.5 6ZM78.1514 34.2881C76.3774 32.5477 73.5286 32.5747 71.7881 34.3486L45.7881 60.8486C45.6761 60.9627 45.5719 61.0817 45.4746 61.2041C45.4529 61.2314 45.4321 61.2594 45.4111 61.2871C45.3872 61.3187 45.3628 61.3498 45.3398 61.3818C45.315 61.4166 45.2914 61.452 45.2676 61.4873C45.2497 61.5138 45.2311 61.5397 45.2139 61.5664C45.1512 61.6637 45.0935 61.7633 45.0391 61.8643C45.0244 61.8913 45.0091 61.918 44.9951 61.9453L44.9873 61.9609C44.941 62.052 44.8991 62.1448 44.8594 62.2383C44.4413 63.2218 44.3882 64.3223 44.7012 65.334C44.7317 65.4327 44.7672 65.5301 44.8047 65.627C44.8203 65.6674 44.8357 65.708 44.8525 65.748C44.8897 65.8364 44.9305 65.9234 44.9736 66.0098C45.1276 66.3182 45.3188 66.6124 45.5479 66.8857C45.5618 66.9023 45.5766 66.9181 45.5908 66.9346C45.6276 66.9772 45.6645 67.02 45.7031 67.0615C45.7045 67.063 45.7057 67.0649 45.707 67.0664L72.7061 96.0664C74.3995 97.8853 77.2474 97.9873 79.0664 96.2939C80.8853 94.6005 80.9873 91.7526 79.2939 89.9336L55.2246 64.0801L78.2119 40.6514C79.9523 38.8774 79.9253 36.0286 78.1514 34.2881Z" fill="#FC9097"/>
</svg>
