<svg width="50" height="41" viewBox="0 0 50 41" fill="none" xmlns="http://www.w3.org/2000/svg">
<rect width="50" height="40.0771" rx="4" fill="#7471F6"/>
<path d="M5.4265 31.8552C4.84952 32.4497 4.86369 33.3993 5.45816 33.9763C6.05262 34.5533 7.00226 34.5391 7.57924 33.9446L6.50287 32.8999L5.4265 31.8552ZM6.50287 32.8999L7.57924 33.9446L21.8856 19.2047L20.8092 18.16L19.7329 17.1153L5.4265 31.8552L6.50287 32.8999Z" fill="#EEF0FF"/>
<path d="M43.1911 33.6552C43.7679 34.2499 44.7176 34.2643 45.3122 33.6875C45.9068 33.1107 45.9213 32.1611 45.3445 31.5665L44.2678 32.6108L43.1911 33.6552ZM44.2678 32.6108L45.3445 31.5665L31.3272 17.1156L30.2505 18.16L29.1738 19.2044L43.1911 33.6552L44.2678 32.6108Z" fill="#EEF0FF"/>
<path d="M43.4008 7.99609L25 23" stroke="#EEF0FF" stroke-width="3" stroke-linecap="round"/>
<path d="M25 23L7.17726 7.99602" stroke="#EEF0FF" stroke-width="3" stroke-linecap="round"/>
</svg>
