<svg width="43" height="43" viewBox="0 0 43 43" fill="none" xmlns="http://www.w3.org/2000/svg">
<path d="M21.5 0.000198364C17.2478 0.000198364 13.0909 1.26114 9.55524 3.62359C6.0196 5.98603 3.26389 9.34387 1.63661 13.2725C0.00932435 17.201 -0.416457 21.5241 0.41312 25.6946C1.2427 29.8653 3.29039 33.696 6.29721 36.7031C9.30404 39.7099 13.135 41.7575 17.3056 42.5871C21.4761 43.4167 25.7992 42.9908 29.7278 41.3635C33.6564 39.7362 37.0141 36.9807 39.3767 33.445C41.739 29.9094 43 25.7526 43 21.5002C43 15.798 40.7347 10.3294 36.7029 6.29741C32.6709 2.26536 27.2021 0.000198364 21.5 0.000198364ZM32.0619 14.7277L28.5413 31.3633C28.2725 32.5458 27.5738 32.8145 26.5794 32.277L21.2044 28.2995L18.5169 30.7989C18.3903 30.9642 18.2277 31.0986 18.0415 31.1918C17.8552 31.2848 17.6502 31.3343 17.4419 31.3364L17.8181 25.9614L27.7619 16.9583C28.2188 16.5821 27.7619 16.3671 27.1169 16.7433L14.9156 24.4027L9.54062 22.7364C8.385 22.3871 8.35812 21.5808 9.7825 21.0433L30.5031 12.9808C31.5244 12.6852 32.3844 13.2764 32.0619 14.7277Z" fill="#17AAE9"/>
</svg>
