<svg width="45" height="45" viewBox="0 0 45 45" fill="none" xmlns="http://www.w3.org/2000/svg">
<path d="M42.9454 32.6506C41.0792 30.733 35.7745 27.1406 32.2977 27.1406C31.4924 27.1406 30.7893 27.3196 30.2141 27.6903C28.5141 28.777 27.1591 29.6207 26.5072 29.6207C26.1493 29.6207 25.7658 29.3011 24.9222 28.5724L24.7816 28.4446C22.4424 26.4119 21.9439 25.8878 21.0364 24.9418L20.8063 24.6989C20.6401 24.5327 20.4995 24.3793 20.3589 24.2386C19.5664 23.4205 18.9912 22.8324 16.9588 20.5312L16.8693 20.429C15.8978 19.3295 15.2587 18.6136 15.2204 18.0895C15.182 17.5781 15.6294 16.7472 16.767 15.2003C18.1475 13.3338 18.1987 11.0327 16.9332 8.3608C15.9234 6.25142 14.2745 4.23153 12.8173 2.45455L12.6894 2.30114C11.4368 0.767045 9.97958 0 8.35621 0C6.55389 0 5.05835 0.971591 4.26584 1.48295C4.20193 1.52131 4.13802 1.57244 4.0741 1.6108C2.29735 2.7358 1.00633 4.28267 0.520595 5.85511C-0.208002 8.22017 -0.693733 11.2884 2.79586 17.6676C5.81251 23.1903 8.54795 26.8977 12.894 31.3594C16.9843 35.5526 18.7994 36.9077 22.8642 39.848C27.3892 43.1207 31.7352 45 34.7774 45C37.6024 45 39.8265 45 42.9965 41.1776C46.32 37.1634 44.9395 34.7088 42.9454 32.6506Z" fill="#312669"/>
</svg>
