<svg width="60" height="60" viewBox="0 0 60 60" fill="none" xmlns="http://www.w3.org/2000/svg">
<path d="M29.5833 1.01926e-07C23.7323 1.01926e-07 18.0127 1.73503 13.1477 4.98569C8.28277 8.23635 4.491 12.8566 2.25191 18.2623C0.012818 23.6679 -0.573031 29.6161 0.568449 35.3548C1.70993 41.0934 4.52747 46.3646 8.66477 50.5019C12.8021 54.6392 18.0733 57.4568 23.8119 58.5982C29.5505 59.7397 35.4988 59.1539 40.9044 56.9148C46.3101 54.6757 50.9303 50.8839 54.181 46.019C57.4316 41.154 59.1667 35.4344 59.1667 29.5833C59.167 25.6983 58.402 21.8513 56.9154 18.2619C55.4289 14.6725 53.2498 11.4112 50.5026 8.66404C47.7555 5.91691 44.4941 3.73783 40.9048 2.25124C37.3154 0.764653 33.4684 -0.000322396 29.5833 1.01926e-07ZM38.9894 44.8261C38.8787 45.1022 38.7102 45.3514 38.4953 45.5571C38.2803 45.7627 38.0239 45.9201 37.7432 46.0185C37.4625 46.117 37.164 46.1543 36.8677 46.128C36.5714 46.1017 36.2841 46.0123 36.0252 45.8659L27.9943 39.6257L22.8399 44.3809C22.7203 44.4693 22.5804 44.5261 22.433 44.5463C22.2857 44.5664 22.1357 44.5492 21.9968 44.4961L22.9848 35.6553L23.0165 35.6803L23.0367 35.5058C23.0367 35.5058 37.4881 22.3486 38.0768 21.788C38.6729 21.2289 38.4762 21.1076 38.4762 21.1076C38.5101 20.4256 37.4067 21.1076 37.4067 21.1076L18.2588 33.4262L10.2847 30.7105C10.2847 30.7105 9.05994 30.2711 8.94456 29.3053C8.82327 28.3468 10.3246 27.8261 10.3246 27.8261L42.0291 15.2309C42.0291 15.2309 44.6353 14.0697 44.6353 15.9928L38.9894 44.8261Z" fill="black"/>
</svg>
