<svg width="71" height="71" viewBox="0 0 71 71" fill="none" xmlns="http://www.w3.org/2000/svg">
<path d="M35.4833 5.91667C29.6322 5.91667 23.9126 7.6517 19.0476 10.9024C14.1827 14.153 10.3909 18.7733 8.15181 24.179C5.91272 29.5846 5.32687 35.5328 6.46835 41.2714C7.60983 47.01 10.4274 52.2813 14.5647 56.4186C18.702 60.5559 23.9732 63.3734 29.7118 64.5149C35.4504 65.6564 41.3987 65.0705 46.8043 62.8314C52.21 60.5924 56.8302 56.8006 60.0809 51.9356C63.3316 47.0707 65.0666 41.351 65.0666 35.5C65.0669 31.615 64.3019 27.7679 62.8153 24.1786C61.3288 20.5892 59.1497 17.3278 56.4025 14.5807C53.6554 11.8336 50.394 9.6545 46.8047 8.16791C43.2153 6.68133 39.3683 5.91635 35.4833 5.91667ZM44.8893 50.7427C44.7786 51.0188 44.6101 51.2681 44.3952 51.4737C44.1802 51.6794 43.9238 51.8367 43.6431 51.9352C43.3624 52.0337 43.0639 52.071 42.7676 52.0447C42.4713 52.0184 42.184 51.929 41.9251 51.7826L33.8942 45.5423L28.7398 50.2976C28.6202 50.386 28.4803 50.4428 28.333 50.463C28.1856 50.4831 28.0356 50.4658 27.8967 50.4128L28.8847 41.5719L28.9164 41.597L28.9366 41.4225C28.9366 41.4225 43.388 28.2653 43.9767 27.7047C44.5728 27.1456 44.3761 27.0243 44.3761 27.0243C44.41 26.3423 43.3066 27.0243 43.3066 27.0243L24.1587 39.3429L16.1846 36.6271C16.1846 36.6271 14.9598 36.1878 14.8445 35.2219C14.7232 34.2634 16.2245 33.7428 16.2245 33.7428L47.929 21.1476C47.929 21.1476 50.5353 19.9864 50.5353 21.9094L44.8893 50.7427Z" fill="#312769"/>
</svg>
