<svg width="56" height="57" viewBox="0 0 56 57" fill="none" xmlns="http://www.w3.org/2000/svg">
<ellipse cx="27.8912" cy="28.2062" rx="27.8912" ry="28.2062" fill="#6B80EF"/>
<path d="M41.2743 21.6831C41.4791 21.5296 41.7812 21.6029 41.7812 21.8588V37.6361C41.781 38.1881 41.3333 38.636 40.7812 38.6361H15.4473C14.8951 38.6361 14.4475 38.1882 14.4473 37.6361V21.8588C14.4473 21.6355 14.7082 21.5649 14.8869 21.6988L27.4706 31.1291C27.826 31.3954 28.3146 31.3954 28.67 31.1291L41.2743 21.6831Z" fill="#FCFCFE"/>
<path d="M27.5145 29.2084C27.87 29.4748 28.3585 29.4748 28.714 29.2084L40.3285 20.5038C41.0976 19.9274 40.6899 18.7036 39.7288 18.7036H16.4997C15.5385 18.7036 15.1308 19.9274 15.9 20.5038L27.5145 29.2084Z" fill="#FCFCFE"/>
</svg>
